<?xml version="1.0" ?>
<!DOCTYPE svg  PUBLIC '-//W3C//DTD SVG 1.1//EN'  'http://www.w3.org/Graphics/SVG/1.1/DTD/svg11.dtd'>
<!-- Uploaded to: SVG Repo, www.svgrepo.com, Generator: SVG Repo Mixer Tools -->
<svg fill="#000000" width="800px" height="800px" viewBox="0 0 512 512" enable-background="new 0 0 512 512" id="Sunglasses" version="1.1" xml:space="preserve" xmlns="http://www.w3.org/2000/svg" xmlns:xlink="http://www.w3.org/1999/xlink">
<g>
<path d="M133.701,193.711c0.074,0,0.15-0.002,0.226-0.006l1.117-0.068c1.001-0.055,1.997-0.098,2.99-0.13   c1.904-0.061,3.398-1.653,3.338-3.558c-0.062-1.904-1.652-3.396-3.559-3.338c-1.046,0.033-2.099,0.078-3.154,0.137c0,0,0,0-0.001,0   l-1.176,0.07c-1.901,0.123-3.344,1.764-3.221,3.666C130.38,192.31,131.896,193.711,133.701,193.711z"/>
<path d="M399.936,310.135c-0.297,0.188-0.596,0.372-0.896,0.555c-1.632,0.984-2.156,3.104-1.171,4.735   c0.647,1.073,1.787,1.668,2.956,1.668c0.606,0,1.223-0.159,1.779-0.497c0.341-0.204,0.677-0.414,1.015-0.626   c1.61-1.018,2.092-3.147,1.075-4.76C403.676,309.601,401.547,309.118,399.936,310.135z"/>
<path d="M450.861,224.294h-15.365c-1.682-6.129-4.385-11.511-8.156-16.235c-10.709-13.45-28.588-20.666-53.142-21.447   c-6.974-0.226-13.689-0.244-19.97-0.063c-0.032-0.001-0.062-0.01-0.094-0.01H157.864c-1.606,0-2.945,1.104-3.328,2.592   c-0.01,0.033-0.022,0.063-0.031,0.098c-0.032,0.144-0.044,0.294-0.059,0.443c-0.008,0.078-0.027,0.15-0.03,0.23   c0,0.014,0.003,0.027,0.003,0.041c0,0.016-0.005,0.03-0.005,0.046c0,0.095,0.021,0.183,0.028,0.274   c0.01,0.131,0.015,0.264,0.039,0.391c0.014,0.07,0.039,0.137,0.058,0.206c0.04,0.155,0.081,0.31,0.141,0.455   c0.017,0.038,0.039,0.071,0.056,0.108c0.077,0.171,0.163,0.336,0.266,0.49c0.007,0.01,0.016,0.019,0.022,0.028   c0.602,0.88,1.595,1.476,2.742,1.509c28.507,0.822,50.881,5.998,64.7,14.969c6.156,4.002,10.379,10.531,11.586,17.916   c0.495,3.026,0.475,6.112-0.063,9.172c-3.414,19.429-12.557,46.38-36.723,64.442c-27.106,20.287-69.443,28.11-94.512,2.654   c-10.283-10.446-16.789-24.958-19.891-44.362c-1.053-6.627-1.544-12.071-1.544-17.135c0-11.973,2.857-21.377,8.735-28.75   c5.213-6.541,12.533-11.445,21.758-14.578c1.805-0.613,2.771-2.573,2.157-4.377c-0.612-1.805-2.573-2.767-4.376-2.157   c-10.496,3.565-18.885,9.222-24.935,16.812c-3.77,4.728-6.472,10.11-8.152,16.237H61.139c-1.905,0-3.45,1.544-3.45,3.45v16.744   c0,1.906,1.545,3.45,3.45,3.45h13.546c0.257,3.491,0.703,7.224,1.366,11.39c3.336,20.873,10.462,36.613,21.786,48.117   c12.536,12.729,28.822,18.061,45.633,18.059c20.489-0.001,41.756-7.924,57.929-20.027c25.977-19.416,35.756-48.116,39.387-68.775   c0.404-2.304,0.545-4.62,0.48-6.927c4.141,0.616,10.891,1.425,17.829,1.425c3.978,0,8.004-0.277,11.636-0.999   c-0.033,2.167,0.116,4.341,0.496,6.503c3.63,20.654,13.407,49.354,39.372,68.772c17.133,12.821,38.562,20.099,58.118,20.099   c3.624,0,7.188-0.251,10.645-0.762c1.884-0.278,3.186-2.033,2.907-3.918c-0.28-1.886-2.032-3.188-3.919-2.908   c-20.353,3.014-44.729-3.9-63.617-18.036c-24.156-18.065-33.296-45.015-36.71-64.441c-0.538-3.061-0.558-6.146-0.063-9.175   c1.207-7.39,5.43-13.92,11.584-17.913c13.82-8.972,36.19-14.149,64.694-14.97c6.192-0.187,12.835-0.166,19.738,0.056   c22.438,0.716,38.577,7.056,47.968,18.852c5.877,7.362,8.733,16.759,8.733,28.727c0,5.018-0.505,10.63-1.544,17.153   c-2.318,14.519-6.496,26.158-12.771,35.582c-1.057,1.586-0.627,3.729,0.96,4.784c1.585,1.058,3.726,0.625,4.783-0.961   c6.835-10.266,11.362-22.8,13.843-38.318c0.652-4.101,1.101-7.868,1.36-11.387h13.552c1.906,0,3.45-1.544,3.45-3.45v-16.744   C454.312,225.838,452.768,224.294,450.861,224.294z M74.421,241.039h-9.833v-9.845h9.833V241.039z M285.787,202.633   c-7.129,4.627-12.195,11.928-14.166,20.273c-9.763,2.862-25.906,0.615-31.298-0.268c-2.016-8.227-7.046-15.422-14.099-20.006   c-5.685-3.689-12.487-6.756-20.37-9.193h100.3C298.273,195.877,291.472,198.943,285.787,202.633z M447.412,241.039h-9.834v-9.845   h9.834V241.039z"/>
</g>
</svg>